<?xml version="1.0" encoding="utf-8"?>
<!-- Generator: Adobe Illustrator 18.1.1, SVG Export Plug-In . SVG Version: 6.00 Build 0)  -->
<svg version="1.1" id="Layer_1" xmlns="http://www.w3.org/2000/svg" xmlns:xlink="http://www.w3.org/1999/xlink" x="0px" y="0px"
	 width="176.8px" height="47.4px" viewBox="-217 373.6 176.8 47.4" style="enable-background:new -217 373.6 176.8 47.4;"
	 xml:space="preserve">
<style type="text/css">
	.st0{fill:#20E2C1;}
	.st1{fill:none;}
	.st2{fill:#FFFFFF;}
</style>
<g id="Calculations">
</g>
<g id="Information">
</g>
<g id="Margin_LR">
</g>
<g id="_x34__x2F_8_x2F_12_CSS">
</g>
<g id="_x34__x2F_8_x2F_12_Layout">
</g>
<g id="Baseline_Grids">
</g>
<g id="Content">
	<rect x="-217" y="373.6" class="st0" width="176.8" height="47.4"/>
	<g>
		<rect x="-193.9" y="387.9" class="st1" width="138.1" height="23.1"/>
		<path class="st2" d="M-183,391.1c-0.1,0.1-0.1,0.2-0.2,0.3c-0.1,0.1-0.2,0.1-0.3,0.1s-0.3-0.1-0.5-0.2c-0.2-0.1-0.4-0.3-0.7-0.4
			c-0.3-0.2-0.6-0.3-1-0.5c-0.4-0.1-0.9-0.2-1.4-0.2s-1,0.1-1.4,0.2c-0.4,0.1-0.7,0.3-1,0.6c-0.3,0.2-0.5,0.5-0.6,0.8
			c-0.1,0.3-0.2,0.7-0.2,1.1c0,0.5,0.1,0.9,0.4,1.2c0.2,0.3,0.5,0.6,0.9,0.8c0.4,0.2,0.8,0.4,1.3,0.6c0.5,0.2,1,0.3,1.5,0.5
			c0.5,0.2,1,0.4,1.5,0.6c0.5,0.2,0.9,0.5,1.3,0.8c0.4,0.3,0.7,0.7,0.9,1.2c0.2,0.5,0.4,1.1,0.4,1.8c0,0.8-0.1,1.5-0.4,2.1
			s-0.6,1.2-1.1,1.7s-1.1,0.9-1.8,1.2c-0.7,0.3-1.5,0.4-2.4,0.4c-1.1,0-2.1-0.2-3-0.6c-0.9-0.4-1.7-0.9-2.3-1.6l0.7-1.1
			c0.1-0.1,0.1-0.2,0.2-0.2c0.1-0.1,0.2-0.1,0.3-0.1c0.2,0,0.4,0.1,0.6,0.3c0.2,0.2,0.5,0.4,0.8,0.6s0.7,0.4,1.2,0.6
			c0.5,0.2,1,0.3,1.7,0.3c0.6,0,1-0.1,1.5-0.2c0.4-0.2,0.8-0.4,1.1-0.6c0.3-0.3,0.5-0.6,0.7-1c0.2-0.4,0.2-0.8,0.2-1.3
			s-0.1-0.9-0.4-1.3c-0.2-0.3-0.5-0.6-0.9-0.8c-0.4-0.2-0.8-0.4-1.3-0.6c-0.5-0.2-1-0.3-1.5-0.5c-0.5-0.2-1-0.4-1.5-0.6
			s-0.9-0.5-1.3-0.8c-0.4-0.3-0.7-0.8-0.9-1.3s-0.4-1.2-0.4-1.9c0-0.6,0.1-1.2,0.4-1.8c0.3-0.6,0.6-1.1,1-1.5c0.4-0.4,1-0.8,1.7-1.1
			c0.7-0.3,1.4-0.4,2.3-0.4c1,0,1.8,0.2,2.6,0.5c0.8,0.3,1.5,0.7,2.1,1.3L-183,391.1z"/>
		<path class="st2" d="M-172.4,403.8c0.7,0,1.3-0.1,1.9-0.4c0.6-0.2,1-0.6,1.4-1c0.4-0.4,0.7-0.9,0.9-1.5c0.2-0.6,0.3-1.3,0.3-2
			v-10.5h2.3v10.5c0,1-0.2,1.9-0.5,2.8c-0.3,0.8-0.8,1.6-1.4,2.2c-0.6,0.6-1.3,1.1-2.2,1.5c-0.8,0.4-1.8,0.5-2.9,0.5s-2-0.2-2.9-0.5
			c-0.8-0.4-1.6-0.8-2.2-1.5c-0.6-0.6-1-1.4-1.4-2.2c-0.3-0.8-0.5-1.8-0.5-2.8v-10.5h2.3v10.4c0,0.7,0.1,1.4,0.3,2
			c0.2,0.6,0.5,1.1,0.9,1.5c0.4,0.4,0.9,0.8,1.4,1C-174.2,403.5-173.1,403.8-172.4,403.8z"/>
		<path class="st2" d="M-161.5,405.6v-17.2h5.5c1.1,0,2,0.1,2.7,0.3c0.8,0.2,1.4,0.5,1.9,0.9s0.9,0.9,1.1,1.4s0.4,1.2,0.4,1.9
			c0,0.4-0.1,0.8-0.2,1.2c-0.1,0.4-0.3,0.8-0.6,1.1c-0.3,0.3-0.6,0.6-1,0.9s-0.9,0.5-1.4,0.6c1.3,0.2,2.2,0.7,2.8,1.4
			c0.6,0.7,1,1.5,1,2.6c0,0.7-0.1,1.4-0.4,2s-0.7,1.1-1.2,1.5s-1.1,0.8-1.9,1c-0.7,0.2-1.6,0.4-2.6,0.4H-161.5z M-159.2,396.1h3.1
			c0.7,0,1.2-0.1,1.7-0.2c0.5-0.1,0.9-0.3,1.2-0.6c0.3-0.3,0.5-0.6,0.7-0.9c0.2-0.4,0.2-0.8,0.2-1.2c0-1-0.3-1.7-0.9-2.2
			c-0.6-0.5-1.6-0.7-2.8-0.7h-3.2C-159.2,390.3-159.2,396.1-159.2,396.1z M-159.2,397.8v6h3.7c0.7,0,1.2-0.1,1.7-0.2
			c0.5-0.2,0.9-0.4,1.2-0.6c0.3-0.2,0.5-0.6,0.7-1c0.1-0.4,0.2-0.8,0.2-1.3c0-0.9-0.3-1.6-0.9-2.1s-1.6-0.8-2.9-0.8H-159.2z"/>
		<path class="st2" d="M-137.2,391.1c-0.1,0.1-0.1,0.2-0.2,0.3c-0.1,0.1-0.2,0.1-0.3,0.1c-0.1,0-0.3-0.1-0.5-0.2
			c-0.2-0.1-0.4-0.3-0.7-0.4c-0.3-0.2-0.6-0.3-1-0.5c-0.4-0.1-0.9-0.2-1.4-0.2s-1,0.1-1.4,0.2c-0.4,0.1-0.7,0.3-1,0.6
			c-0.3,0.2-0.5,0.5-0.6,0.8c-0.1,0.3-0.2,0.7-0.2,1.1c0,0.5,0.1,0.9,0.4,1.2c0.2,0.3,0.5,0.6,0.9,0.8c0.4,0.2,0.8,0.4,1.3,0.6
			c0.5,0.2,1,0.3,1.5,0.5c0.5,0.2,1,0.4,1.5,0.6s0.9,0.5,1.3,0.8c0.4,0.3,0.7,0.7,0.9,1.2c0.2,0.5,0.4,1.1,0.4,1.8
			c0,0.8-0.1,1.5-0.4,2.1s-0.6,1.2-1.1,1.7s-1.1,0.9-1.8,1.2c-0.7,0.3-1.5,0.4-2.4,0.4c-1.1,0-2.1-0.2-3-0.6s-1.7-0.9-2.3-1.6
			l0.7-1.1c0.1-0.1,0.1-0.2,0.2-0.2c0.1-0.1,0.2-0.1,0.3-0.1c0.2,0,0.4,0.1,0.6,0.3c0.2,0.2,0.5,0.4,0.8,0.6
			c0.3,0.2,0.7,0.4,1.2,0.6c0.5,0.2,1,0.3,1.7,0.3c0.6,0,1-0.1,1.5-0.2c0.4-0.2,0.8-0.4,1.1-0.6c0.3-0.3,0.5-0.6,0.7-1
			c0.2-0.4,0.2-0.8,0.2-1.3s-0.1-0.9-0.4-1.3c-0.2-0.3-0.5-0.6-0.9-0.8c-0.4-0.2-0.8-0.4-1.3-0.6c-0.5-0.2-1-0.3-1.5-0.5
			c-0.5-0.2-1-0.4-1.5-0.6s-0.9-0.5-1.3-0.8c-0.4-0.3-0.7-0.8-0.9-1.3c-0.2-0.5-0.4-1.2-0.4-1.9c0-0.6,0.1-1.2,0.4-1.8
			c0.3-0.6,0.6-1.1,1-1.5c0.4-0.4,1-0.8,1.7-1.1c0.7-0.3,1.4-0.4,2.3-0.4c1,0,1.8,0.2,2.6,0.5c0.8,0.3,1.5,0.7,2.1,1.3L-137.2,391.1
			z"/>
		<path class="st2" d="M-121.2,402.1c0.1,0,0.2,0.1,0.3,0.2l0.9,1c-0.7,0.8-1.6,1.5-2.6,1.9s-2.2,0.7-3.6,0.7
			c-1.2,0-2.4-0.2-3.4-0.6c-1-0.4-1.9-1-2.6-1.8c-0.7-0.8-1.3-1.7-1.7-2.8s-0.6-2.3-0.6-3.6s0.2-2.5,0.6-3.6c0.4-1.1,1-2,1.8-2.8
			c0.8-0.8,1.7-1.4,2.7-1.8c1.1-0.4,2.2-0.6,3.5-0.6s2.4,0.2,3.3,0.6c0.9,0.4,1.7,0.9,2.4,1.6l-0.8,1.1c-0.1,0.1-0.1,0.1-0.2,0.2
			c-0.1,0.1-0.2,0.1-0.3,0.1c-0.1,0-0.2,0-0.3-0.1c-0.1-0.1-0.3-0.2-0.4-0.3c-0.2-0.1-0.3-0.2-0.6-0.4c-0.2-0.1-0.5-0.2-0.8-0.4
			c-0.3-0.1-0.6-0.2-1-0.3c-0.4-0.1-0.8-0.1-1.4-0.1c-0.9,0-1.8,0.2-2.5,0.5c-0.8,0.3-1.4,0.8-2,1.4c-0.6,0.6-1,1.3-1.3,2.1
			c-0.3,0.8-0.5,1.8-0.5,2.8c0,1.1,0.2,2,0.5,2.9c0.3,0.9,0.7,1.5,1.3,2.1c0.5,0.6,1.2,1,1.9,1.3c0.7,0.3,1.5,0.5,2.4,0.5
			c0.5,0,1,0,1.4-0.1c0.4-0.1,0.8-0.2,1.1-0.3c0.3-0.1,0.7-0.3,1-0.5c0.3-0.2,0.6-0.4,0.9-0.7C-121.4,402.1-121.3,402.1-121.2,402.1
			z"/>
		<path class="st2" d="M-114.3,398.4v7.2h-2.3v-17.2h4.9c1.1,0,2,0.1,2.8,0.3c0.8,0.2,1.4,0.5,2,1c0.5,0.4,0.9,0.9,1.1,1.5
			s0.4,1.2,0.4,2c0,0.6-0.1,1.2-0.3,1.7c-0.2,0.5-0.5,1-0.8,1.4c-0.4,0.4-0.8,0.8-1.3,1.1c-0.5,0.3-1.1,0.5-1.8,0.7
			c0.3,0.2,0.5,0.4,0.8,0.7l5,6.8h-2.2c-0.4,0-0.7-0.2-0.9-0.5l-4.5-6.1c-0.1-0.2-0.3-0.3-0.4-0.4s-0.4-0.1-0.7-0.1h-1.8V398.4z
			 M-114.3,396.7h2.4c0.7,0,1.3-0.1,1.8-0.2s0.9-0.4,1.3-0.7c0.3-0.3,0.6-0.7,0.8-1.1c0.2-0.4,0.3-0.9,0.3-1.4c0-1-0.3-1.8-1-2.3
			s-1.7-0.8-3-0.8h-2.5v6.5H-114.3z"/>
		<path class="st2" d="M-98.6,405.6h-2.4v-17.2h2.3L-98.6,405.6L-98.6,405.6z"/>
		<path class="st2" d="M-94,405.6v-17.2h5.5c1.1,0,2,0.1,2.7,0.3c0.8,0.2,1.4,0.5,1.9,0.9s0.9,0.9,1.1,1.4s0.4,1.2,0.4,1.9
			c0,0.4-0.1,0.8-0.2,1.2c-0.1,0.4-0.3,0.8-0.6,1.1c-0.3,0.3-0.6,0.6-1,0.9s-0.9,0.5-1.4,0.6c1.3,0.2,2.2,0.7,2.8,1.4s1,1.5,1,2.6
			c0,0.7-0.1,1.4-0.4,2c-0.3,0.6-0.7,1.1-1.2,1.5s-1.1,0.8-1.9,1c-0.7,0.2-1.6,0.4-2.6,0.4H-94z M-91.7,396.1h3.1
			c0.7,0,1.2-0.1,1.7-0.2c0.5-0.1,0.9-0.3,1.2-0.6c0.3-0.3,0.5-0.6,0.7-0.9c0.2-0.4,0.2-0.8,0.2-1.2c0-1-0.3-1.7-0.9-2.2
			s-1.6-0.7-2.8-0.7h-3.2V396.1z M-91.7,397.8v6h3.7c0.7,0,1.2-0.1,1.7-0.2c0.5-0.2,0.9-0.4,1.2-0.6c0.3-0.2,0.5-0.6,0.7-1
			c0.1-0.4,0.2-0.8,0.2-1.3c0-0.9-0.3-1.6-0.9-2.1c-0.6-0.5-1.6-0.8-2.9-0.8H-91.7z"/>
		<path class="st2" d="M-67.9,388.4v1.9h-8.3v5.7h6.7v1.8h-6.7v5.9h8.3v1.9h-10.6v-17.2H-67.9z"/>
	</g>
</g>
</svg>
