<?xml version="1.0" encoding="utf-8"?>
<!-- Generator: Adobe Illustrator 18.1.1, SVG Export Plug-In . SVG Version: 6.00 Build 0)  -->
<svg version="1.1" xmlns="http://www.w3.org/2000/svg" xmlns:xlink="http://www.w3.org/1999/xlink" x="0px" y="0px" width="176.8px"
	 height="47.4px" viewBox="0 0 176.8 47.4" style="enable-background:new 0 0 176.8 47.4;" xml:space="preserve">
<style type="text/css">
	.st0{fill:#20E2C1;}
	.st1{fill:none;}
	.st2{fill:#FFFFFF;}
</style>
<g id="Calculations">
</g>
<g id="Information">
</g>
<g id="Margin_LR">
</g>
<g id="_x34__x2F_8_x2F_12_CSS">
</g>
<g id="_x34__x2F_8_x2F_12_Layout">
</g>
<g id="Baseline_Grids">
</g>
<g id="Content">
	<rect x="0" y="0" class="st0" width="176.8" height="47.4"/>
	<g>
		<rect x="23.1" y="14.3" class="st1" width="138.1" height="23.1"/>
		<path class="st2" d="M34,17.5c-0.1,0.1-0.1,0.2-0.2,0.3c-0.1,0.1-0.2,0.1-0.3,0.1c-0.1,0-0.3-0.1-0.5-0.2
			c-0.2-0.1-0.4-0.3-0.7-0.4c-0.3-0.2-0.6-0.3-1-0.5c-0.4-0.1-0.9-0.2-1.4-0.2c-0.5,0-1,0.1-1.4,0.2c-0.4,0.1-0.7,0.3-1,0.6
			c-0.3,0.2-0.5,0.5-0.6,0.8c-0.1,0.3-0.2,0.7-0.2,1.1c0,0.5,0.1,0.9,0.4,1.2c0.2,0.3,0.5,0.6,0.9,0.8c0.4,0.2,0.8,0.4,1.3,0.6
			s1,0.3,1.5,0.5c0.5,0.2,1,0.4,1.5,0.6c0.5,0.2,0.9,0.5,1.3,0.8c0.4,0.3,0.7,0.7,0.9,1.2c0.2,0.5,0.4,1.1,0.4,1.8
			c0,0.8-0.1,1.5-0.4,2.1s-0.6,1.2-1.1,1.7c-0.5,0.5-1.1,0.9-1.8,1.2c-0.7,0.3-1.5,0.4-2.4,0.4c-1.1,0-2.1-0.2-3-0.6
			c-0.9-0.4-1.7-0.9-2.3-1.6l0.7-1.1c0.1-0.1,0.1-0.2,0.2-0.2c0.1-0.1,0.2-0.1,0.3-0.1c0.2,0,0.4,0.1,0.6,0.3
			c0.2,0.2,0.5,0.4,0.8,0.6c0.3,0.2,0.7,0.4,1.2,0.6c0.5,0.2,1,0.3,1.7,0.3c0.6,0,1-0.1,1.5-0.2c0.4-0.2,0.8-0.4,1.1-0.6
			c0.3-0.3,0.5-0.6,0.7-1s0.2-0.8,0.2-1.3c0-0.5-0.1-0.9-0.4-1.3c-0.2-0.3-0.5-0.6-0.9-0.8c-0.4-0.2-0.8-0.4-1.3-0.6
			c-0.5-0.2-1-0.3-1.5-0.5c-0.5-0.2-1-0.4-1.5-0.6c-0.5-0.2-0.9-0.5-1.3-0.8c-0.4-0.3-0.7-0.8-0.9-1.3s-0.4-1.2-0.4-1.9
			c0-0.6,0.1-1.2,0.4-1.8s0.6-1.1,1-1.5c0.4-0.4,1-0.8,1.7-1.1c0.7-0.3,1.4-0.4,2.3-0.4c1,0,1.8,0.2,2.6,0.5
			c0.8,0.3,1.5,0.7,2.1,1.3L34,17.5z"/>
		<path class="st2" d="M44.6,30.2c0.7,0,1.3-0.1,1.9-0.4c0.6-0.2,1-0.6,1.4-1c0.4-0.4,0.7-0.9,0.9-1.5c0.2-0.6,0.3-1.3,0.3-2V14.8
			h2.3v10.5c0,1-0.2,1.9-0.5,2.8c-0.3,0.8-0.8,1.6-1.4,2.2c-0.6,0.6-1.3,1.1-2.2,1.5c-0.8,0.4-1.8,0.5-2.9,0.5s-2-0.2-2.9-0.5
			c-0.8-0.4-1.6-0.8-2.2-1.5c-0.6-0.6-1-1.4-1.4-2.2c-0.3-0.8-0.5-1.8-0.5-2.8V14.8h2.3v10.4c0,0.7,0.1,1.4,0.3,2
			c0.2,0.6,0.5,1.1,0.9,1.5c0.4,0.4,0.9,0.8,1.4,1S43.9,30.2,44.6,30.2z"/>
		<path class="st2" d="M55.5,32V14.8H61c1.1,0,2,0.1,2.7,0.3c0.8,0.2,1.4,0.5,1.9,0.9c0.5,0.4,0.9,0.9,1.1,1.4s0.4,1.2,0.4,1.9
			c0,0.4-0.1,0.8-0.2,1.2c-0.1,0.4-0.3,0.8-0.6,1.1s-0.6,0.6-1,0.9c-0.4,0.3-0.9,0.5-1.4,0.6c1.3,0.2,2.2,0.7,2.8,1.4
			c0.6,0.7,1,1.5,1,2.6c0,0.7-0.1,1.4-0.4,2c-0.3,0.6-0.7,1.1-1.2,1.5c-0.5,0.4-1.1,0.8-1.9,1c-0.7,0.2-1.6,0.4-2.6,0.4H55.5z
			 M57.8,22.5h3.1c0.7,0,1.2-0.1,1.7-0.2s0.9-0.3,1.2-0.6c0.3-0.3,0.5-0.6,0.7-0.9c0.2-0.4,0.2-0.8,0.2-1.2c0-1-0.3-1.7-0.9-2.2
			c-0.6-0.5-1.6-0.7-2.8-0.7h-3.2V22.5z M57.8,24.2v6h3.7c0.7,0,1.2-0.1,1.7-0.2c0.5-0.2,0.9-0.4,1.2-0.6s0.5-0.6,0.7-1
			c0.1-0.4,0.2-0.8,0.2-1.3c0-0.9-0.3-1.6-0.9-2.1c-0.6-0.5-1.6-0.8-2.9-0.8H57.8z"/>
		<path class="st2" d="M79.8,17.5c-0.1,0.1-0.1,0.2-0.2,0.3c-0.1,0.1-0.2,0.1-0.3,0.1c-0.1,0-0.3-0.1-0.5-0.2
			c-0.2-0.1-0.4-0.3-0.7-0.4c-0.3-0.2-0.6-0.3-1-0.5c-0.4-0.1-0.9-0.2-1.4-0.2c-0.5,0-1,0.1-1.4,0.2c-0.4,0.1-0.7,0.3-1,0.6
			c-0.3,0.2-0.5,0.5-0.6,0.8c-0.1,0.3-0.2,0.7-0.2,1.1c0,0.5,0.1,0.9,0.4,1.2c0.2,0.3,0.5,0.6,0.9,0.8c0.4,0.2,0.8,0.4,1.3,0.6
			s1,0.3,1.5,0.5c0.5,0.2,1,0.4,1.5,0.6c0.5,0.2,0.9,0.5,1.3,0.8c0.4,0.3,0.7,0.7,0.9,1.2c0.2,0.5,0.4,1.1,0.4,1.8
			c0,0.8-0.1,1.5-0.4,2.1s-0.6,1.2-1.1,1.7c-0.5,0.5-1.1,0.9-1.8,1.2c-0.7,0.3-1.5,0.4-2.4,0.4c-1.1,0-2.1-0.2-3-0.6
			c-0.9-0.4-1.7-0.9-2.3-1.6l0.7-1.1c0.1-0.1,0.1-0.2,0.2-0.2c0.1-0.1,0.2-0.1,0.3-0.1c0.2,0,0.4,0.1,0.6,0.3
			c0.2,0.2,0.5,0.4,0.8,0.6c0.3,0.2,0.7,0.4,1.2,0.6c0.5,0.2,1,0.3,1.7,0.3c0.6,0,1-0.1,1.5-0.2c0.4-0.2,0.8-0.4,1.1-0.6
			c0.3-0.3,0.5-0.6,0.7-1s0.2-0.8,0.2-1.3c0-0.5-0.1-0.9-0.4-1.3c-0.2-0.3-0.5-0.6-0.9-0.8c-0.4-0.2-0.8-0.4-1.3-0.6
			c-0.5-0.2-1-0.3-1.5-0.5c-0.5-0.2-1-0.4-1.5-0.6c-0.5-0.2-0.9-0.5-1.3-0.8c-0.4-0.3-0.7-0.8-0.9-1.3s-0.4-1.2-0.4-1.9
			c0-0.6,0.1-1.2,0.4-1.8s0.6-1.1,1-1.5c0.4-0.4,1-0.8,1.7-1.1c0.7-0.3,1.4-0.4,2.3-0.4c1,0,1.8,0.2,2.6,0.5
			c0.8,0.3,1.5,0.7,2.1,1.3L79.8,17.5z"/>
		<path class="st2" d="M95.8,28.5c0.1,0,0.2,0.1,0.3,0.2l0.9,1c-0.7,0.8-1.6,1.5-2.6,1.9s-2.2,0.7-3.6,0.7c-1.2,0-2.4-0.2-3.4-0.6
			c-1-0.4-1.9-1-2.6-1.8c-0.7-0.8-1.3-1.7-1.7-2.8c-0.4-1.1-0.6-2.3-0.6-3.6c0-1.3,0.2-2.5,0.6-3.6c0.4-1.1,1-2,1.8-2.8
			c0.8-0.8,1.7-1.4,2.7-1.8c1.1-0.4,2.2-0.6,3.5-0.6c1.3,0,2.4,0.2,3.3,0.6c0.9,0.4,1.7,0.9,2.4,1.6l-0.8,1.1
			c-0.1,0.1-0.1,0.1-0.2,0.2c-0.1,0.1-0.2,0.1-0.3,0.1c-0.1,0-0.2,0-0.3-0.1c-0.1-0.1-0.3-0.2-0.4-0.3c-0.2-0.1-0.3-0.2-0.6-0.4
			c-0.2-0.1-0.5-0.2-0.8-0.4c-0.3-0.1-0.6-0.2-1-0.3s-0.8-0.1-1.4-0.1c-0.9,0-1.8,0.2-2.5,0.5c-0.8,0.3-1.4,0.8-2,1.4
			c-0.6,0.6-1,1.3-1.3,2.1c-0.3,0.8-0.5,1.8-0.5,2.8c0,1.1,0.2,2,0.5,2.9s0.7,1.5,1.3,2.1c0.5,0.6,1.2,1,1.9,1.3s1.5,0.5,2.4,0.5
			c0.5,0,1,0,1.4-0.1c0.4-0.1,0.8-0.2,1.1-0.3s0.7-0.3,1-0.5c0.3-0.2,0.6-0.4,0.9-0.7C95.6,28.5,95.7,28.5,95.8,28.5z"/>
		<path class="st2" d="M102.7,24.8V32h-2.3V14.8h4.9c1.1,0,2,0.1,2.8,0.3c0.8,0.2,1.4,0.5,2,1c0.5,0.4,0.9,0.9,1.1,1.5
			c0.2,0.6,0.4,1.2,0.4,2c0,0.6-0.1,1.2-0.3,1.7c-0.2,0.5-0.5,1-0.8,1.4c-0.4,0.4-0.8,0.8-1.3,1.1c-0.5,0.3-1.1,0.5-1.8,0.7
			c0.3,0.2,0.5,0.4,0.8,0.7l5,6.8H111c-0.4,0-0.7-0.2-0.9-0.5l-4.5-6.1c-0.1-0.2-0.3-0.3-0.4-0.4s-0.4-0.1-0.7-0.1H102.7z
			 M102.7,23.1h2.4c0.7,0,1.3-0.1,1.8-0.2s0.9-0.4,1.3-0.7c0.3-0.3,0.6-0.7,0.8-1.1c0.2-0.4,0.3-0.9,0.3-1.4c0-1-0.3-1.8-1-2.3
			c-0.7-0.5-1.7-0.8-3-0.8h-2.5V23.1z"/>
		<path class="st2" d="M118.4,32H116V14.8h2.3V32z"/>
		<path class="st2" d="M123,32V14.8h5.5c1.1,0,2,0.1,2.7,0.3c0.8,0.2,1.4,0.5,1.9,0.9c0.5,0.4,0.9,0.9,1.1,1.4s0.4,1.2,0.4,1.9
			c0,0.4-0.1,0.8-0.2,1.2c-0.1,0.4-0.3,0.8-0.6,1.1s-0.6,0.6-1,0.9c-0.4,0.3-0.9,0.5-1.4,0.6c1.3,0.2,2.2,0.7,2.8,1.4
			c0.6,0.7,1,1.5,1,2.6c0,0.7-0.1,1.4-0.4,2c-0.3,0.6-0.7,1.1-1.2,1.5c-0.5,0.4-1.1,0.8-1.9,1c-0.7,0.2-1.6,0.4-2.6,0.4H123z
			 M125.3,22.5h3.1c0.7,0,1.2-0.1,1.7-0.2s0.9-0.3,1.2-0.6c0.3-0.3,0.5-0.6,0.7-0.9c0.2-0.4,0.2-0.8,0.2-1.2c0-1-0.3-1.7-0.9-2.2
			s-1.6-0.7-2.8-0.7h-3.2V22.5z M125.3,24.2v6h3.7c0.7,0,1.2-0.1,1.7-0.2c0.5-0.2,0.9-0.4,1.2-0.6s0.5-0.6,0.7-1
			c0.1-0.4,0.2-0.8,0.2-1.3c0-0.9-0.3-1.6-0.9-2.1c-0.6-0.5-1.6-0.8-2.9-0.8H125.3z"/>
		<path class="st2" d="M149.1,14.8v1.9h-8.3v5.7h6.7v1.8h-6.7v5.9h8.3V32h-10.6V14.8H149.1z"/>
	</g>
	<g>
	</g>
	<g>
	</g>
	<g>
	</g>
	<g>
	</g>
	<g>
	</g>
	<g>
	</g>
	<g>
	</g>
	<g>
	</g>
	<g>
	</g>
	<g>
	</g>
	<g>
	</g>
	<g>
	</g>
	<g>
	</g>
	<g>
	</g>
	<g>
	</g>
</g>
</svg>
